<svg version="1.2" xmlns="http://www.w3.org/2000/svg" viewBox="0 0 171 200" width="171" height="200">
	<title>thumbnail</title>
	<style>
		.s0 { fill: #c03e3e } 
	</style>
	<path id="Path 0" class="s0" d="m22.1 17.3c-0.5 1.2-1.2 7.4-1.6 13.7-0.5 7.6-0.3 14.2 0.5 19.5 0.7 4.4 2.1 10.5 3.3 13.5 1.1 3 3.4 7.8 5.2 10.5 1.7 2.8 8.5 10.4 15.2 17 6.6 6.6 13.8 14.7 16 18 2.2 3.3 4.9 7.8 6.1 10 1.1 2.2 2.9 6.3 4 9l1.9 5c-14.8-14.8-21.3-20.1-26.7-23.4-4.7-2.8-9.5-5.1-10.8-5.1-1.9 0-2.1 0.4-1.6 2.7 0.3 1.6 1.7 5.3 3 8.3 1.4 3 4 7.3 5.8 9.5 1.8 2.2 6.1 5.9 9.7 8.3 3.5 2.4 8.7 5 11.4 5.7 2.8 0.8 6.1 2.6 7.5 4 2.4 2.6 2.5 3.1 3 21.4 0.4 14.8 0.8 19.2 2 20.5 0.8 0.9 2 1.7 2.5 1.7 0.5 0 1.8-0.8 2.7-1.8 1.6-1.6 1.8-4.1 1.7-20.8 0-10.4 0.4-20.3 0.9-22 0.5-1.7 2.1-5.4 3.6-8.3 1.4-2.8 4.8-7.3 7.5-10 2.6-2.6 7.2-5.8 10-7.2l5.1-2.5c6.6 6.4 9.5 8.8 10.8 9.4 1.2 0.6 3.1 0.9 4.2 0.6 1.1-0.3 2.2-1.2 2.5-2 0.3-0.8-0.5-2.7-1.8-4.1l-2.2-2.7c7.8 1.4 11.8 1.7 14 1.6 2.6-0.2 4.8-1 6.3-2.5 1.2-1.3 2.3-2.8 2.3-3.3 0-0.5-1.2-2.1-2.7-3.5-2.1-2.1-3.5-2.5-8.2-2.4h-5.7c9.3-3.1 13.2-5.3 14.8-6.8 1.8-1.9 2.7-3.9 2.7-6.1 0-1.7-0.5-3.8-1.2-4.5-0.7-0.7-3-1.2-5.1-1.2-2 0-4.9 0.6-6.5 1.4-1.5 0.7-3.4 2.1-4.2 3.1-0.8 1-2.8 2.7-4.5 3.9l-3 2.1c5-6.2 6.8-9.6 7.1-11.5 0.5-2.5 0.2-4-1-5.3-0.9-0.9-2.6-1.7-3.9-1.7-1.2 0-3.4 1.2-4.9 2.7-1.5 1.6-3.7 5.7-5 9.3l-2.2 6.5c-1.2-5.4-2.1-7.3-2.8-7.7-0.7-0.4-1.9-0.8-2.6-0.8-0.6 0-1.7 1-2.3 2.2-0.7 1.4-0.9 4.4-0.5 7.8 0.3 3 0.8 6.5 1.1 7.7 0.4 1.8 0 2.5-1.8 2.9-1.2 0.4-4.7 2.2-7.7 4.2-3 1.9-7.8 6-10.7 9.1l-5.2 5.6c-0.9-7-1.8-13.7-2.6-19.5-0.8-5.8-2.4-13.9-3.4-18-1.1-4.1-3.6-11.5-5.6-16.5-2-5-5.8-12.8-8.5-17.5-2.6-4.7-7.4-11.9-10.5-16-3.2-4.1-9.8-11.7-14.9-16.8-5-5-9.7-9.2-10.4-9.2-0.7 0-1.6 1-2.1 2.2z"/>
</svg>